<?xml version="1.0" encoding="UTF-8"?>
<!-- Generator: Adobe Illustrator 22.1.0, SVG Export Plug-In . SVG Version: 6.00 Build 0)  -->
<svg version="1.1" id="Ebene_1" xmlns="http://www.w3.org/2000/svg" xmlns:xlink="http://www.w3.org/1999/xlink" x="0px" y="0px" viewBox="0 0 595.3 595.3" style="enable-background:new 0 0 595.3 595.3;" xml:space="preserve">
<style type="text/css">
	.st0{opacity:0.25;fill:#FFF2D4;enable-background:new    ;}
	.st1{fill:#FFF2D4;}
</style>
<title>Mauve</title>
<g id="Layer_3">
	<path class="st0" d="M366.6,128.4c0,0-6.2,8.3,29.8,45.5s56.7,50.1,79.1,97.3s47.6,33.1-3.3,70.4s11.2,37.7-39.7,65   s-54.2,19.5-82.8,58s-77.4,21.5-123.3-12c-35.8-26.1-54-15.3-72.4-23.8c-5.2-2.4-4-25.8-11.2-28.3c-32.3-11.2-39.2-43.5-28.1-93.1   s-2.2-134.9,30.1-121.3s32.7-7,61.3-21.9s51.3-49.2,86.1-31.9S364.1,94.9,366.6,128.4z"/>
	<path class="st0" d="M385.6,231.2c0,0-5.6,2.1,0.4,31.5s12.1,42.2,8.3,72.2s12.9,31-23.6,33.3s-6.3,21.8-39.7,19.3   s-32.5-7.4-58.5,2.5S228,376.4,216,345.6c-9.3-23.9-21.6-24.3-27.9-34.2c-1.8-2.8,6.1-13.9,3.4-17.3c-12.3-15.5-5.6-33.5,15.4-54.2   s41-66.6,52.5-49.9s18.2,6.8,36.8,8.4s40.4-8,52,11.3S394.8,214,385.6,231.2z"/>
</g>
<g id="Layer_1">
	<path class="st1" d="M180.3,139.3c1.1-2.1,2.3-4.2,3.6-6.2s2.7-4,4.1-5.9c1.5-1.8,3-3.8,4.6-5.5s3.3-3.6,5-5.2   c0.9-0.9,1.7-1.7,2.6-2.5c0.9-0.8,1.8-1.6,2.7-2.4c1.8-1.6,3.7-3.1,5.7-4.6l2.9-2.2l3-2.1c1-0.7,2.1-1.3,3.1-2s2.1-1.3,3.2-1.9   c2.1-1.2,4.3-2.3,6.5-3.5s4.4-2.1,6.8-3c1.1-0.4,2.3-0.9,3.4-1.4l3.5-1.2c1.2-0.4,2.4-0.8,3.5-1.1s2.4-0.7,3.6-1   c2.4-0.6,4.8-1.3,7.2-1.7c1.2-0.2,2.4-0.5,3.7-0.7l3.7-0.6c2.5-0.4,4.9-0.6,7.4-0.8s4.9-0.3,7.4-0.5h0.2h0.6   c5.7,0.4,11.7,0.7,17.5,0.9s11.7,0.3,17.6,0.3s11.7-0.1,17.4-0.5c1.4-0.1,2.9-0.2,4.3-0.3s2.9-0.2,4.3-0.4l4.2-0.5l4.3-0.6   c1.4-0.2,2.7-0.5,4.1-0.7s2.7-0.6,4-0.8c2.7-0.6,5.2-1.3,7.9-2.2l2.1-0.7l1.2-0.4l1.3-0.4l1.6-0.4c0.6-0.1,1.4-0.2,2-0.3   c0.8-0.1,1.5-0.1,2.3-0.1s1.5,0.1,2.3,0.3c0.7,0.1,1.3,0.3,2,0.5l1,0.3l0.8,0.3c0.5,0.2,1,0.4,1.5,0.7l1.3,0.7l0.6,0.3h0.1l0.4,0.2   l0.1,0.1l0.2,0.2l0.5,0.3c0.3,0.2,0.7,0.5,1,0.7c0.6,0.4,1.2,0.9,1.7,1.4s1,1,1.5,1.6c1.7,2,2.9,4.3,3.7,6.8c0.6,1.8,1,3.7,1.3,5.6   c0.5,3.2,0.9,5.8,1.5,8.2c1.2,4.8,3.3,9.3,6.2,13.2c0.9,1.3,1.6,2.2,2.5,3.4l2.7,3.5c1.9,2.3,3.7,4.8,5.5,7.2   c3.7,4.9,7.3,9.9,10.6,15s6.5,10.5,9.4,16s5.4,11.1,7.7,16.9c2.3,5.7,4.2,11.6,5.8,17.5l1.1,4.5c0.4,1.5,0.6,3,1,4.5s0.6,3,0.9,4.5   s0.5,3,0.7,4.5c0.9,6,1.3,12.1,1.4,18.2v4.5c0,1.5-0.1,3-0.2,4.5l-0.1,2.3L451,247c-0.1,1.5-0.3,3-0.4,4.5   c-0.8-6-1.5-11.9-2.7-17.7s-2.5-11.6-4.2-17.2s-3.6-11.2-5.8-16.6s-4.7-10.7-7.3-15.8s-5.6-10.2-8.7-15s-6.4-9.6-9.9-14.2   s-7.1-9.1-10.9-13.6l-5.8-6.7l-2.9-3.5c-0.9-1.1-2.1-2.5-3-3.7l-0.7-0.9l-0.8-1.1c-0.5-0.7-1-1.4-1.5-2.2c-3-4.5-5.2-9.4-6.5-14.6   c-0.9-3.4-1.5-6.7-2-9.4c-0.2-1.1-0.5-2.1-0.8-3.2c-0.1-0.4-0.3-0.8-0.5-1.1c0,0,0-0.1-0.1-0.1s-0.1-0.1,0,0h0.1l-0.5-0.3l-0.2-0.1   l-0.1-0.1l0.3,0.2l0,0l-0.4-0.2L375,94c-0.2-0.1-0.4-0.1-0.5-0.2l-0.3-0.1h-0.1c0,0-0.2-0.1-0.1,0s0,0,0.1,0s0.1,0,0.1,0   s-0.1,0-0.2,0l-0.5,0.1l-0.8,0.3l-1,0.3l-2.2,0.7c-3,1-6.3,1.8-9.4,2.6c-1.6,0.3-3.1,0.7-4.7,0.9s-3.3,0.6-4.8,0.8L346,100   l-4.7,0.5c-1.6,0.2-3.1,0.2-4.7,0.3s-3.1,0.2-4.7,0.2c-6.2,0.2-12.4,0.2-18.5,0s-12.2-0.6-18.3-1.1s-12-1.2-18.2-2h0.8   c-2.2,0-4.5-0.1-6.7-0.1s-4.5,0.1-6.7,0.3l-3.3,0.2c-1.1,0.1-2.2,0.2-3.3,0.4c-2.2,0.2-4.4,0.6-6.6,0.9c-1.1,0.2-2.2,0.4-3.3,0.6   s-2.2,0.4-3.3,0.7l-3.3,0.8c-1.1,0.3-2.2,0.6-3.2,0.9c-2.2,0.6-4.3,1.4-6.4,2.1s-4.3,1.5-6.3,2.4s-4.1,1.8-6.2,2.8l-3.1,1.5l-3,1.6   c-2,1.1-4,2.3-5.9,3.5c-1,0.6-1.9,1.2-2.9,1.9s-1.9,1.3-2.8,2c-1.9,1.3-3.7,2.7-5.5,4.2s-3.6,2.9-5.3,4.5c-1.7,1.6-3.4,3.1-5.1,4.8   S181.8,137.4,180.3,139.3z"/>
	<path class="st1" d="M138.3,355.3l-1-0.1c-0.7-0.1-1.6-0.1-2.9-0.3c-3.7-0.5-7.3-1.2-10.9-2.2c-2.3-0.6-4.9-1.4-7.7-2.4   c-3-1.1-5.9-2.3-8.8-3.8c-7.1-3.5-13.5-8.1-18.9-13.8c-3.2-3.4-5.9-7.2-8.1-11.4c-1.2-2.2-2.2-4.5-3-6.9c-0.5-1.2-0.8-2.4-1.2-3.7   l-0.3-0.9l-0.2-1l-0.4-1.7l-0.8-3.4c-0.3-1.1-0.5-2.4-0.7-3.7l-0.7-3.8l-0.5-3.9c-0.4-2.6-0.5-5.3-0.6-8c0-2.7,0-5.5,0.3-8.3   c0.5-5.7,1.5-11.3,3.2-16.7c1.6-5.4,3.6-10.5,5.7-15.4l3-7.4l1.4-3.7c0.5-1.2,1-2.4,1.4-3.6l1.3-3.5l1.3-3.8   c0.2-0.6,0.5-1.3,0.6-1.9l0.5-1.8c0.3-1.2,0.7-2.3,1-3.6c1.4-4.8,2.4-9.7,3.2-14.7c0.4-2.5,0.7-5,0.9-7.5l0.8-8   c0.2-3.1,0.8-6.2,1.5-9.2c0.5-1.8,1.2-3.6,2-5.2l0.3-0.6l0.1-0.2c-0.2,0.3,0.3-0.6,0.3-0.5l0.1-0.2l0.3-0.4l0.1-0.2l0.3-0.5   c0.2-0.3,0.5-0.6,0.7-0.9l0.4-0.4l0.3-0.4c0.4-0.5,0.9-0.9,1.4-1.3c1.8-1.4,3.8-2.5,6-3.2c1.6-0.5,3.3-0.9,5-1.1   c3.1-0.4,5.7-0.5,8.2-0.7c5.1-0.2,9.7-0.6,14.2-1.2c4.4-0.5,8.8-1.4,13.2-2.4c2.1-0.6,4.2-1.1,6.2-1.8l1.5-0.5l0.4-0.1   c-0.1,0.1,0,0,0,0h0.1l0.2-0.1l0.8-0.3l3.1-1.1c1.1-0.4,2-0.7,3-1.1l2.8-1.1l5.6-2.3c7.3-3,14-6.3,20.5-8.6   c5.5-2.1,11.4-3.3,17.3-3.7c1.2-0.1,2.4-0.1,3.4-0.1h1.6l1.5,0.1c1.9,0.1,3.4,0.2,4.7,0.4l3.9,0.5l-3.9,0.5   c-3.6,0.4-7.1,1.1-10.6,2c-5.3,1.4-10.4,3.6-15.1,6.4c-2.8,1.6-5.7,3.4-8.8,5.3s-6.4,4-10,6.1c-1.8,1.1-3.6,2.1-5.5,3.1l-2.9,1.6   c-1,0.5-2,1-3,1.5l-3,1.4l-0.8,0.4l-0.2,0.1h-0.1l-0.2,0.1l-0.4,0.2l-1.6,0.7c-2.2,1-4.4,1.8-6.7,2.7c-4.8,1.7-9.6,3.1-14.6,4.1   c-5,1.1-10.3,1.8-15.3,2.4c-2.5,0.3-5,0.6-7,1c-0.8,0.1-1.7,0.4-2.5,0.7c-0.6,0.2-0.8,0.4-0.8,0.5s0,0,0,0l0,0l0.1-0.1   c0.1-0.1,0.1-0.1,0.1-0.2v-0.1l-0.1,0.2L114,177l-0.1,0.2c-0.1,0.1,0.4-0.7,0.2-0.3v0.1l-0.1,0.2c-0.3,0.7-0.5,1.4-0.7,2.1   c-0.4,2.1-0.7,4.3-0.8,6.5c-0.3,5-0.6,10.8-1.4,16.4c-0.7,5.7-1.9,11.4-3.4,17c-0.3,1.4-0.8,2.8-1.3,4.2l-0.7,2.1   c-0.2,0.7-0.4,1.3-0.7,1.9l-1.4,3.8l-1.6,4c-2,5.2-4.2,10.2-6.3,15s-4.1,9.5-5.8,14c-1.6,4.3-2.7,8.8-3.4,13.3   c-0.4,2.2-0.5,4.5-0.7,6.7c0,2.3-0.1,4.5,0,6.8l0.1,3.4l0.3,3.3c0.1,2.1,0.5,4.5,0.8,6.8l0.2,1.7l0.1,0.7l0.1,0.7   c0.2,1,0.3,2,0.6,2.9c0.5,1.9,1,3.7,1.7,5.6c1.4,3.5,3.2,6.8,5.4,9.9c4.1,5.6,9,10.5,14.7,14.5c4.5,3.3,9.2,6.1,14.2,8.6   c4.2,2.1,7.6,3.6,9.9,4.5S138.3,355.3,138.3,355.3z"/>
	<path class="st1" d="M463,207.3c1.2,0.3,2.3,0.6,3.4,1c3.2,1.1,6.3,2.5,9.3,4.2c11,6.1,19.9,15.4,25.7,26.5   c1.9,3.6,3.5,7.5,4.7,11.4c0.6,2,1.2,4.1,1.6,6.3l0.3,1.6l0.3,1.6l0.5,3.1c1.5,8.3,3.6,16.4,6.2,24.4c1.4,4,3,8,4.9,11.8   c2,3.8,4.2,7.5,6.8,11c1.3,1.8,2.8,3.7,4.4,6.1c1,1.4,1.8,2.9,2.5,4.5c0.9,2,1.4,4.1,1.5,6.2c0,0.5,0,1.1,0,1.6v0.8v0.2   c0,0-0.1,1-0.1,0.6v0.2v0.5v0.2v0.1v0.3c-0.1,0.8-0.3,1.6-0.6,2.3c-0.2,0.7-0.5,1.3-0.8,2c-0.3,0.6-0.7,1.3-1.1,1.9   c-0.4,0.6-0.9,1.1-1.3,1.6c-0.4,0.4-0.9,1-1.4,1.3c-1.4,1.1-2.9,2.2-4.5,3l-3.3,1.6c-1.8,1-3.4,2.1-5,3.3c-1.6,1.2-3.1,2.5-4.4,4   c-2.9,3.2-5.5,6.6-7.7,10.3c-1.2,1.9-2.3,3.8-3.3,5.7c-0.5,1-1.1,2-1.6,2.9s-1,2-1.5,3l-1.5,3l-1.4,3.1c-0.5,1-0.9,2-1.3,3.1   l-1.4,3.2l-2.8,6.2l-1.4,3.1l-1.7,3.1c-1.1,2.1-2.2,4.2-3.3,6.2s-2.4,3.9-3.6,5.7c-4.6,7.1-10.1,13.5-16.3,19.1   c-5.4,4.7-11.6,8.4-18.3,10.9l-2.2,0.8c-0.7,0.3-1.5,0.4-2.2,0.6c-1.4,0.4-2.7,0.7-4.1,1l-3.8,0.6c-1.2,0.1-2.4,0.2-3.5,0.3   s-2.1,0.1-3.1,0.1s-1.9,0-2.7,0c-1.7-0.1-3.1-0.2-4.3-0.3c-2.3-0.3-3.5-0.4-3.5-0.4l3.5-0.6c1.1-0.2,2.5-0.5,4.1-0.8   c0.8-0.2,1.7-0.4,2.6-0.6s1.9-0.4,2.9-0.8c4.7-1.4,9.3-3.4,13.5-5.9c5.3-3.2,10.1-7.3,14.2-12c1.1-1.4,2.2-2.7,3.3-4.1   c0.6-0.7,1.1-1.4,1.6-2.2l1.5-2.3l0.8-1.1c0.3-0.4,0.5-0.8,0.8-1.2l1.4-2.5c0.9-1.7,2-3.3,2.8-5.1s1.8-3.6,2.7-5.4s1.6-3.7,2.4-5.6   l1.2-2.9l1.1-3.2l2.3-6.4l1.1-3.2c0.4-1.1,0.8-2.3,1.2-3.4l1.3-3.4l1.4-3.4c0.5-1.1,1-2.3,1.5-3.4s1-2.3,1.6-3.4   c1.1-2.3,2.4-4.5,3.7-6.8c2.7-4.7,5.9-9.1,9.5-13.1c3.9-4.3,8.4-7.9,13.5-10.7l3.3-1.8c0.6-0.3,1.1-0.6,1.7-1l0,0   c-0.1,0.1-0.1,0.1-0.2,0.2c-0.1,0.1-0.1,0.2-0.2,0.3c-0.1,0.1-0.1,0.2-0.1,0.3c-0.1,0.2-0.1,0.4-0.1,0.5l0,0v-0.2l0.1-0.5v-0.2   c0-0.5,0,0.5,0,0.4l0,0v-0.1c0-0.1,0-0.1,0-0.2c0-0.3-0.1-0.6-0.2-0.8c-0.3-0.7-0.6-1.3-1-1.9c-1-1.6-2.5-3.6-3.9-5.7   s-2.9-4.4-4.1-6.7s-2.4-4.7-3.5-7c-2-4.6-3.7-9.4-4.9-14.2c-1.2-4.6-2.2-9.2-2.9-13.9c-0.4-2.3-0.6-4.5-0.9-6.7s-0.5-4.5-0.6-6.6   l-0.2-3.1l-0.1-1.5l-0.1-1.4c-0.1-1.9-0.5-3.7-0.7-5.5c-1.6-9.7-5.5-18.8-11.2-26.8c-4.9-6.7-10.8-12.5-17.6-17.2   C464,207.9,463,207.3,463,207.3z"/>
	<path class="st1" d="M430.3,331c0,0,0.9,1.3,2.5,3.8s3.9,6.2,6.4,11.1c3.1,5.9,5.8,12,8.1,18.3c3.1,8.3,5.3,16.8,6.7,25.5   c1.4,9.7,1.8,20.7-1.2,32.3c-2.3,9.2-6.9,17.7-13.3,24.7c-2.2,2.4-4.7,4.7-7.2,6.7c-2.6,2.1-5.3,3.9-8.2,5.6   c-1.4,0.8-2.9,1.6-4.4,2.4l-4.3,2l-4.1,1.9c-1.4,0.6-2.6,1.3-4,1.9c-2.6,1.3-5.3,2.6-7.9,4c-10.6,5.5-20.7,11.9-30.3,19   c-4.7,3.5-9.2,7.4-13.5,11.4c-2.1,2-4.1,4.1-6.2,6.3s-4,4.4-6.1,6.7c-1,1.2-2.2,2.4-3.4,3.7c-1.4,1.5-3,2.8-4.6,4   c-2.4,1.7-5.2,2.8-8.2,3.1c-1.4,0.1-2.8,0.1-4.1-0.1c-0.3,0-0.7-0.1-1-0.2l-1-0.2c-0.6-0.2-1.2-0.3-1.8-0.6   c-1.9-0.7-3.7-1.7-5.4-2.8c-1.5-0.9-2.8-1.8-4-2.7c-2.5-1.7-4.7-3.3-7-4.8c-8.9-5.5-18.6-9.4-28.8-11.5c-1.2-0.3-2.5-0.6-3.7-0.8   s-2.5-0.5-3.7-0.7s-2.5-0.4-3.7-0.6l-3.8-0.5l-7.4-1c-2.5-0.4-4.9-0.8-7.3-1.2c-9.4-1.8-18.1-4-25.4-7.1c-6.4-2.6-12.3-6.3-17.3-11   c-1.8-1.7-3.4-3.6-5-5.5c-1.4-1.7-2.4-3.1-3.3-4.3s-1.5-2.1-2-2.7l-0.7-0.9l3.4,3c3.1,2.8,6.3,5.5,9.8,7.8c5.3,3.4,11.1,6,17.3,7.4   c8,1.9,16.3,3.1,24.5,3.5c8.9,0.8,19.3,0.3,30.6,1.9c5.8,0.8,11.6,2,17.2,3.8c6,1.8,11.7,4.3,17.2,7.4c2.8,1.5,5.5,3.2,7.9,4.8   c1.2,0.8,2.4,1.6,3.5,2.2c0.8,0.5,1.7,0.9,2.6,1.2c0.1,0,0.2,0.1,0.4,0.1h0.1h0.2c-0.1,0-0.1,0-0.2,0h-0.1l0,0h0.1l0.6-0.1   c-0.4,0-0.4,0.1,0.1-0.3c0.8-0.6,1.5-1.3,2.2-2.1c0.9-1,1.8-2,2.8-3.2c3.9-4.6,8.2-9.7,12.9-14.2c4.7-4.6,9.7-8.9,14.9-12.9   c10.4-7.7,21.5-14.5,33.1-20.1c5.6-2.8,11.6-5.5,17.1-7.7l3.9-1.7c1.2-0.6,2.4-1.1,3.6-1.8c2.3-1.2,4.5-2.5,6.6-4   c4.1-2.9,7.7-6.3,10.6-10.3c2.9-3.9,5.1-8.2,6.7-12.7c3.2-9,4-18.7,3.7-27.6c-0.3-8.3-1.3-16.5-3.1-24.6c-1.6-7.3-3.4-13.6-5-18.9   s-3-9.3-4.1-12S430.3,331,430.3,331z"/>
	<path class="st1" d="M242.1,462.5c0,0-1,0.4-2.9,0.9s-4.7,1.2-8.4,1.8c-10.1,1.5-20.3,2-30.6,1.5c-3.2-0.1-6.5-0.4-9.9-0.7   l-5.1-0.5l-1.3-0.1l-1.2-0.1c-0.8,0-1.6-0.1-2.4-0.1c-6.9-0.4-13.8,0-20.6,1.2c-3.6,0.6-7.1,1.4-10.6,2.4c-1.8,0.5-3.6,1.1-5.6,1.7   c-1,0.3-2,0.6-3.2,0.9c-1.3,0.3-2.7,0.6-4,0.8c-0.4,0.1-0.9,0.1-1.3,0.1c-0.5,0-1,0-1.5,0c-0.6,0-1.2-0.1-1.7-0.2   c-0.7-0.1-1.3-0.3-2-0.5s-1.4-0.5-2.1-0.9c-0.3-0.2,0.4,0.3-0.8-0.5h-0.1l-0.2-0.1l-0.2-0.1h-0.1l-0.3-0.2   c-1.8-1.3-3.2-3.2-3.9-5.3c-0.2-0.4-0.3-0.9-0.4-1.3c0-0.2-0.1-0.5-0.1-0.6l-0.1-0.5c0-0.4-0.1-0.8-0.1-1.1v-0.9v-0.4v-0.3v-0.7   l0.1-1.1l0.4-3c0.2-1.5,0.2-2.9,0.1-4.4s-0.4-2.9-0.8-4.3c-1-3.2-2.4-6.3-4.2-9.1c-2-3.1-4.1-6.1-6.4-9L107,423l-3.8-4.8l-3.7-4.8   c-1.2-1.6-2.4-3.3-3.6-4.9c-4.6-6.4-8.6-13.3-11.8-20.5c-2.8-6.5-4.8-13.4-6-20.4c-0.2-0.8-0.3-1.6-0.3-2.4l-0.3-2.4l-0.3-2.3   l-0.1-1.1v-1.1l-0.2-4.3l-0.1-2c0-0.7,0-1.3,0-2c0.1-2.6,0.1-5,0.3-7.2s0.4-4.3,0.6-6.1s0.5-3.5,0.7-4.9l0.6-3.6   c0.4-1.9,0.6-3,0.6-3s0.2,1,0.4,3l0.4,3.6c0.2,1.4,0.3,3,0.7,4.8l0.9,5.9c0.4,2.1,0.8,4.4,1.3,6.8c0.2,1.2,0.5,2.5,0.8,3.7l1,3.9   c0.2,0.7,0.3,1.3,0.6,2l0.6,2l0.6,2.1c0.2,0.7,0.4,1.4,0.7,2.1c0.5,1.4,1,2.8,1.6,4.2c0.3,0.7,0.6,1.4,0.9,2.1l1,2.1   c0.3,0.7,0.6,1.4,1,2.1l1,2.2c0.8,1.4,1.5,2.9,2.4,4.3c3.6,6,7.8,11.7,12.3,17l3.7,4.3l3.8,4.4l4,4.5l4,4.6   c5.7,6.5,11.3,14.1,14.4,24c0.7,2.6,1.2,5.2,1.4,7.9c0.2,2.6,0.1,5.3-0.3,7.9c-0.2,1.2-0.4,2.3-0.5,3.1l-0.1,0.4v0.1v-0.1   c0-0.1,0-0.2,0-0.3l-0.1-0.4c0-0.2-0.1-0.4-0.2-0.6c-0.4-1.2-1.2-2.1-2.2-2.8l-0.1-0.1h0.1l0.2,0.1l0.2,0.1h0.1l-0.6-0.4   c-0.2-0.1-0.5-0.2-0.7-0.3c-0.9-0.2-0.9-0.1-0.5-0.1c0.7-0.1,1.3-0.2,2-0.3c0.8-0.2,1.7-0.4,2.7-0.6c1.9-0.5,3.9-1,6-1.4   c4.1-1,8.4-1.6,12.6-2c8-0.7,16-0.3,23.9,1.1c0.9,0.1,1.9,0.4,2.8,0.5l1.4,0.3l1.3,0.3l2.6,0.6l2.4,0.6c3.2,0.8,6.3,1.5,9.3,2.1   c6,1.3,11.5,2.3,16.4,3.1s9.2,1.4,12.8,1.8s6.4,0.6,8.4,0.7S242.1,462.5,242.1,462.5z"/>
	<path class="st1" d="M206.4,169.6c0,0,0.2-0.4,0.5-1s0.9-1.7,1.7-2.9s1.9-2.8,3.2-4.4c1.5-2,3.2-3.8,4.9-5.6   c4.7-4.8,10.1-9,16-12.4c3.7-2.1,7.5-3.9,11.4-5.4c4.4-1.6,8.9-2.9,13.5-3.8c5-1,10.1-1.5,15.2-1.7l4-0.1c1.3,0,2.7,0.1,4,0.1   c2.7,0.1,5.5,0.4,8.3,0.6c1.4,0.2,2.8,0.4,4.2,0.6l2.1,0.3c0.7,0.1,1.4,0.3,2.1,0.4l4.2,0.8l4.1,0.8c2.8,0.6,5.5,1.1,8.2,1.6   s5.6,1,8.4,1.4c5.7,0.8,11.5,1.6,17.3,2s11.8,0.6,17.7,0.6c3,0,5.9-0.2,8.9-0.4s5.9-0.6,8.9-0.9s5.9-0.9,8.9-1.5   c1.5-0.3,3-0.6,4.7-0.9c0.4-0.1,0.8-0.1,1.3-0.2s0.9-0.1,1.4-0.2l0.8-0.1c0.3,0,0.6,0,0.9,0h0.5c0.2,0,0.4,0,0.5,0   c0.4,0,0.8,0.1,1.2,0.1c1.2,0.2,2.4,0.5,3.4,1.1c0.7,0.4,1.4,0.9,1.9,1.5l0.4,0.5c0.1,0.2,0.5,0.6,0.4,0.5l0.2,0.2l0.7,0.9   c0.3,0.4,0.6,1,1,1.5c0.1,0.3,0.3,0.5,0.5,0.8l0.4,0.7c0.2,0.5,0.5,1,0.7,1.4l0.6,1.5c0.2,0.5,0.3,1,0.5,1.5   c0.9,3.6,1.4,7.3,1.3,11v9.3c0,2.9,0.2,5.8,0.5,8.6c0.6,5.6,1.8,11.2,3.6,16.6c1.8,5.4,3.9,10.6,6.4,15.7c0.6,1.3,1.2,2.5,1.9,3.8   l2.1,3.8l2,3.8l0.5,0.9l0.5,1l1,2.1l1,2.1c0.3,0.7,0.6,1.4,0.8,2c0.5,1.4,1.1,2.7,1.6,4.1l1.4,4.1c0.4,1.4,0.8,2.7,1.2,4.1   c1.4,5.3,2.4,10.7,3,16.2c0.5,5.1,0.5,10.2,0.1,15.3c-0.7,8.9-2.9,17.6-6.4,25.8c-2.7,6.2-6.5,12-11.1,17   c-2.9,3.3-6.4,5.9-10.4,7.8c-0.6,0.3-1.2,0.5-1.8,0.7c-0.3,0.1-0.5,0.2-0.7,0.2l-0.6,0.1l-1.1,0.2l1.1-0.4l0.6-0.2   c0.2-0.1,0.4-0.2,0.7-0.4c0.6-0.3,1.1-0.6,1.6-1c3.4-2.4,6.4-5.3,8.7-8.8c3.6-5.2,6.4-11,8.2-17.1c2.4-7.8,3.6-16,3.5-24.3   c0-4.7-0.4-9.3-1.2-13.9c-0.9-4.9-2.1-9.7-3.7-14.4c-1.7-4.9-3.8-9.7-6.2-14.4l-0.9-1.7l-0.5-0.9l-0.5-0.9l-2.2-3.7l-2.2-3.7   c-0.8-1.3-1.5-2.6-2.2-4c-3-5.5-5.6-11.2-7.7-17.1c-2.2-6.2-3.8-12.5-4.6-19c-0.4-3.3-0.6-6.6-0.7-9.9s0-6.4-0.1-9.4   c0.1-2.5-0.2-5.1-0.8-7.5l-0.2-0.7l-0.3-0.7c-0.1-0.2-0.2-0.4-0.3-0.7l-0.2-0.3c0-0.1-0.1-0.2-0.1-0.2s-0.1-0.3-0.3-0.5l-0.7-0.9   l-0.2-0.2l0.2,0.2l0.2,0.3c0.3,0.3,0.6,0.5,1,0.8c0.4,0.2,0.8,0.4,1.2,0.4l0,0h-0.2c-0.1,0-0.1,0-0.3,0h-0.4   c-0.2,0-0.6,0.1-0.9,0.1s-0.7,0.1-1,0.1c-1.4,0.2-2.9,0.5-4.5,0.8c-3.1,0.6-6.4,1.1-9.6,1.5c-6.4,0.8-12.9,1.2-19.4,1.2   c-6.3,0-12.6-0.4-18.9-1.1c-6.2-0.7-12.2-1.6-18.1-2.8c-3-0.5-5.8-1.2-8.7-1.8s-5.8-1.4-8.5-2.1l-4.1-1.1l-3.9-1   c-0.6-0.2-1.3-0.3-1.9-0.5l-1.9-0.4l-3.8-0.8c-4.9-0.9-9.9-1.4-14.9-1.7c-4.7-0.2-9.3-0.1-14,0.4c-4.3,0.5-8.5,1.2-12.7,2.3   c-3.8,1-7.5,2.3-11.1,3.9c-5.9,2.6-11.5,5.9-16.5,9.8c-3.3,2.6-6.4,5.4-9.2,8.5C208.3,167.2,207.3,168.3,206.4,169.6z"/>
	<path class="st1" d="M251.9,383.9c0,0-1.4,0.5-4.1,1c-3.9,0.9-7.8,1.5-11.8,1.8c-6.2,0.5-12.5,0.5-18.7-0.3   c-1.8-0.2-3.7-0.5-5.6-0.8s-3.9-0.8-5.9-1.4c-4.2-1.1-8.4-2.7-12.3-4.6c-4.4-2.1-8.5-4.7-12.2-7.7l-1.5-1.2c-0.5-0.4-1-0.8-1.4-1.3   l-2.8-2.7c-0.9-0.9-1.8-1.9-2.6-2.9c-0.4-0.5-0.9-1-1.3-1.5l-1.2-1.6c-3.4-4.4-6.2-9.1-8.5-14.1l-1.7-3.9l-0.4-1l-0.3-1l-0.7-2   c-0.4-1.4-1-2.7-1.3-4.1l-1.1-4.1l-0.6-2.1l-0.4-2l-0.9-4c-0.6-2.7-1.1-5.6-1.6-8.4c-1-5.6-1.9-11.3-2.7-17s-1.4-11.5-2-17.3   s-1.1-11.5-1.9-17l-0.6-4.1c-0.3-1.3-0.4-2.7-0.8-4s-0.6-2.6-0.9-3.8l-0.3-0.9l-0.1-0.5c0-0.2,0,0.1,0,0v-0.1l-0.1-0.3l-0.7-2.1   c-0.8-2.3-1.9-4.8-3.1-7.3s-2.5-5.2-3.6-8.4c-0.6-1.7-1.1-3.5-1.4-5.3c-0.1-1-0.2-2-0.3-3.1c0-1.1,0.1-2.1,0.2-3.2   c0.1-0.5,0.2-1.1,0.3-1.6l0.5-1.5c0.3-1,0.7-1.9,1.2-2.8l0.3-0.7l0.2-0.4l0.1-0.1l0.1-0.2l0.3-0.4c0.1-0.2,0.4-0.5,0.6-0.8   s0.4-0.6,0.6-0.8l0.6-0.6c0.4-0.4,0.8-0.8,1.3-1.2c1.7-1.4,3.5-2.4,5.6-3.1c1.6-0.5,3.2-0.9,4.8-1.2c2.9-0.6,5.4-0.9,7.9-1.5   c2.4-0.5,4.7-1.2,6.9-2.1c2.2-0.9,4.4-1.9,6.4-3c2.1-1.1,4.1-2.4,6-3.8l0.7-0.5c0,0,0.2-0.2-0.1,0.1l0.1-0.1l0.3-0.2l0.5-0.4   c0.6-0.4,1.2-0.8,1.7-1.2c1.1-0.8,2.3-1.5,3.5-2.2c8.6-5,18.1-8.3,28-9.7c8.2-1.2,16.5-1,24.7,0.5c6.2,1.1,12.2,3,17.9,5.5   c3.6,1.6,7.2,3.4,10.6,5.4l3.6,2.2L266,192c-2.5-1-6.3-2.3-11.1-3.6c-5.8-1.6-11.7-2.5-17.7-2.9c-7.6-0.5-15.2,0.2-22.6,2   c-4.2,1-8.2,2.3-12.2,4.1c-4.2,1.8-8.2,3.9-11.9,6.5c-1,0.6-1.9,1.3-2.8,2c-0.4,0.4-0.9,0.7-1.3,1l-0.7,0.6l-0.8,0.6   c-2.2,1.8-4.4,3.4-6.8,4.9c-5,3.2-10.4,5.6-16.1,7.1c-2.8,0.8-5.7,1.4-8.2,1.9c-1.1,0.2-2.2,0.5-3.2,0.9c-0.6,0.2-1.2,0.6-1.7,1   c-0.1,0.1-0.2,0.2-0.2,0.3l-0.1,0.1l0,0c0,0,0,0-0.1,0.1l-0.3,0.5l-0.1,0.2l-0.1,0.1c-0.1,0.1,0.2-0.4,0.1-0.2l-0.1,0.3   c-0.2,0.4-0.3,0.7-0.4,1.1c0,0.2-0.1,0.4-0.2,0.5s0,0.4-0.1,0.5c-0.1,0.3-0.1,0.7-0.1,1c0,0.4,0.1,0.8,0.1,1.2c0.2,1,0.5,2,0.9,2.9   c0.8,2.2,2.1,4.7,3.4,7.3c1.4,2.8,2.6,5.7,3.7,8.6l0.7,2l0.2,0.7l0.2,0.6l0.3,1.2c0.5,1.6,0.8,3.1,1.2,4.6s0.6,3,0.9,4.6   c0.3,1.6,0.5,3,0.7,4.5c1.5,11.9,2.2,23.3,3.5,34.5c0.6,5.6,1.3,11.1,2.1,16.6c0.4,2.7,0.8,5.4,1.3,8l0.7,4.1l0.4,2l0.4,1.8   l0.8,3.7c0.3,1.2,0.7,2.4,1,3.6l0.5,1.8l0.3,0.9l0.3,0.9l1.3,3.5c1.7,4.4,3.9,8.6,6.5,12.6l0.9,1.5l1,1.4c0.7,0.9,1.4,1.8,2.1,2.7   l2.2,2.5c0.7,0.8,1.6,1.5,2.3,2.3l1.2,1.1c0.4,0.4,0.8,0.7,1.2,1c0.8,0.7,1.6,1.4,2.5,2l2.6,1.8c0.9,0.6,1.8,1.1,2.6,1.7l1.3,0.8   l1.3,0.7c0.9,0.5,1.8,1,2.6,1.4c1.8,0.8,3.6,1.6,5.3,2.3s3.5,1.3,5.3,1.9s3.4,1,5.1,1.4c5.8,1.5,11.8,2.4,17.8,2.9   c3.9,0.2,7.8,0.3,11.7,0.1C250.4,384.1,251.9,383.9,251.9,383.9z"/>
	<path class="st1" d="M242.4,224.2c2.2-2.7,4.6-5.2,7.2-7.4l2-1.7c0.7-0.5,1.4-1.1,2.1-1.6c1.4-1.1,2.8-2.1,4.3-3   c2.9-1.9,6-3.7,9.2-5.3c1.6-0.9,3.2-1.5,4.9-2.2c0.8-0.3,1.6-0.7,2.5-1l2.5-0.9l2.5-0.9c0.9-0.3,1.7-0.5,2.6-0.7l2.6-0.7   c0.9-0.2,1.7-0.4,2.6-0.6l5.3-0.9c1.8-0.2,3.6-0.3,5.4-0.5c0.9-0.1,1.8-0.2,2.7-0.2h2.7h2.7h1.4h0.6h0.6l2.5,0.1l2.4,0.1l4.9,0.1   c3.3,0.1,6.5,0,9.8-0.1s6.5-0.3,9.7-0.6s6.4-0.7,9.9-1.1c1.9-0.3,3.8-0.4,5.7-0.5c1.2,0,2.4,0,3.6,0.2c1.5,0.2,3,0.6,4.3,1.3   c1.4,0.7,2.6,1.6,3.7,2.7l0.2,0.2l0,0l0.3,0.3v0.1l0.2,0.2l0.2,0.2l0.1,0.1l0.2,0.3c0.3,0.4,0.5,0.7,0.8,1.1l0.5,0.9   c0.6,1.2,1.1,2.5,1.5,3.8c0.3,1.1,0.5,2.2,0.6,3.4c0.2,1.9,0.2,3.7,0.2,5.6c0,1.7,0,3.3,0.1,4.8c0.1,2.9,0.6,5.9,1.4,8.7   c0.4,1.4,0.9,2.8,1.5,4.2s1.3,2.7,2,4.1l0.4,0.7c0,0.1,0.1,0.2,0.1,0.2l0.7,2.5l0.6,2.5c0.4,1.6,0.8,3.3,1.2,5s0.7,3.3,1.1,5   s0.6,3.3,0.9,5s0.5,3.4,0.8,5c0.1,0.8,0.2,1.7,0.3,2.5l0.3,2.5l0.2,2.5c0.1,0.8,0.1,1.7,0.1,2.5c0.1,1.7,0.1,3.4,0.1,5.1   c-0.6-1.6-1-3.2-1.6-4.8s-1.1-3.1-1.7-4.7s-1.2-3.1-1.8-4.7s-1.2-3.1-1.8-4.6s-1.2-3.1-1.9-4.6l-1.9-4.6l-2-4.5l-1-2.3l-1-2.2   l0.5,1c-4.8-6-7.9-13.3-8.8-20.9c-0.5-3.7-0.6-7.3-1.1-9.9c-0.1-0.5-0.2-1.1-0.4-1.6c-0.1-0.3-0.3-0.6-0.5-0.9l-0.1-0.1   c0,0,0,0,0,0.1l0,0l-0.1-0.1l-0.2-0.2l-0.2-0.2v-0.1l0.2,0.2l0,0l0,0c-0.1-0.1-0.2-0.2-0.4-0.3c-0.2,0-0.3-0.1-0.5-0.1   c-0.5,0-1,0-1.5,0c-1.2,0.1-2.8,0.3-4.4,0.5c-3.3,0.5-6.8,1-10.3,1.3s-7.1,0.5-10.6,0.6s-7.1-0.1-10.6-0.2   c-1.8-0.1-3.5-0.2-5.3-0.4l-2.6-0.3l-2.5-0.3l-0.6-0.1h-0.4h-0.3l-1.2-0.1l-2.4-0.2l-2.4-0.2c-0.8-0.1-1.6,0-2.4-0.1   c-1.6,0-3.2-0.1-4.8,0l-4.8,0.3c-0.8,0-1.6,0.1-2.4,0.2l-2.4,0.3c-0.8,0.1-1.6,0.2-2.4,0.3l-2.4,0.5l-2.4,0.4   c-0.8,0.1-1.6,0.4-2.4,0.6l-2.4,0.6c-0.8,0.2-1.6,0.4-2.4,0.6c-3.1,0.9-6.3,2-9.4,3.2c-1.5,0.6-3.1,1.2-4.6,1.9l-2.3,1l-2.3,1.1   C248.1,220.8,245.2,222.4,242.4,224.2z"/>
	<path class="st1" d="M149.4,332.7c-0.2,1.5-0.3,3-0.3,4.5c-0.1,4.2,0.3,8.5,1.2,12.6c0.6,2.9,1.4,5.8,2.3,8.7   c1.2,3.3,2.5,6.5,4.1,9.6c0.8,1.7,1.8,3.3,2.8,5s2.1,3.4,3.4,5.1c2.6,3.6,5.4,6.9,8.4,10.1c3.3,3.4,6.8,6.7,10.5,9.6   c0.5,0.4,1,0.8,1.4,1.2l1.5,1.1c1,0.8,2,1.5,3,2.3c2.1,1.5,4.2,3,6.5,4.4l6.9,4.4c2.4,1.5,4.8,3.1,7.2,4.7   c4.9,3.2,9.7,6.7,14.5,10.4s9.6,7.7,14.3,11.9c4.8,4.3,9.2,9,13.4,13.9c2.1,2.5,4.1,5.1,6.1,7.6c1,1.3,1.9,2.5,2.8,3.7   c0.7,1,1.5,1.9,2.4,2.8c0.2,0.2,0.3,0.2,0.4,0.3s0.2,0.1,0.2,0.1l0,0l0,0c-0.2,0,0.5,0.1-0.5-0.1l0.3,0.1l0.3,0.1h0.1   c0.1,0,0,0,0,0c-0.2-0.1-0.5-0.1-0.7-0.1s-0.3,0-0.5,0s-0.4,0.1-0.7,0.2h-0.1l0,0c0,0,0,0,0.1,0s0.3-0.2,0.5-0.4   c0.9-0.8,2.1-2,3.4-3.2c1.4-1.2,2.8-2.3,4.2-3.3c5.7-4,12-7.2,18.6-9.4c6.2-2.2,12.6-3.9,19.1-5.1c6.3-1.3,12.6-2.2,18.8-2.9   c3.1-0.4,6.2-0.6,9.3-0.9l8.8-0.8l4.1-0.6c1.4-0.2,2.7-0.4,4.1-0.6c2.7-0.5,5.5-1,8.1-1.7s5.2-1.5,7.7-2.2c1.2-0.4,2.4-0.9,3.6-1.4   c0.6-0.2,1.2-0.5,1.8-0.7l1.7-0.8c9.3-4.1,16.7-10.4,21.3-17.8c4.2-6.9,6.5-14.9,6.6-23c0.1-3.5-0.1-7-0.5-10.4   c-0.2-1.6-0.5-3.1-0.8-4.6s-0.6-2.9-1-4.2c-1.1-4.1-2.5-8.1-4.3-12c-0.6-1.4-1.1-2.4-1.5-3l-0.5-1l0.7,0.9c0.5,0.6,1.2,1.5,2,2.8   c2.4,3.6,4.5,7.5,6.1,11.5c0.6,1.3,1,2.7,1.6,4.2s1,3,1.4,4.7c1,3.6,1.6,7.3,1.9,11c0.4,4.3,0.2,8.7-0.5,13   c-0.8,4.8-2.3,9.5-4.6,13.9c-2.5,4.8-5.7,9.2-9.6,12.9c-4.1,4-8.8,7.3-13.8,10l-1.9,1.1c-0.6,0.4-1.3,0.6-2,0.9   c-1.3,0.6-2.7,1.2-4,1.8c-2.8,1-5.5,2.2-8.4,3c-1.4,0.4-2.9,0.9-4.4,1.3l-4.4,1.1c-1.5,0.4-3,0.6-4.5,0.9l-4.6,0.8l-4.4,0.6   l-2.2,0.3l-2.4,0.3c-3,0.3-5.9,0.7-8.9,1.1c-5.9,0.9-11.9,1.9-17.8,3.1s-11.6,2.8-17.3,4.8c-5.4,1.8-10.5,4.4-15.2,7.7   c-1.1,0.8-2.2,1.7-3.2,2.6c-1.1,0.9-2,1.9-3.5,3.3c-0.3,0.3-0.9,0.7-1.3,1.1c-0.3,0.2-0.6,0.4-0.9,0.6s-0.3,0.2-0.5,0.3l-0.6,0.3   c-0.9,0.5-1.9,0.8-2.9,1c-0.5,0.1-1.1,0.1-1.7,0.2c-0.6,0-1.3-0.1-1.9-0.1l-0.3-0.1h-0.1l-0.3-0.1l-0.3-0.1c-0.2,0-0.5-0.1-0.7-0.2   l-0.3-0.1c-0.4-0.1-0.7-0.3-1.1-0.4l-1-0.5c-0.6-0.3-1.2-0.7-1.8-1.2c-0.5-0.4-1-0.8-1.4-1.2c-1.4-1.4-2.7-2.8-3.8-4.4   c-1-1.4-1.9-2.6-2.9-3.9c-1.8-2.5-3.6-4.9-5.5-7.2c-3.8-4.6-7.8-9-12-13.1s-8.6-8-13.1-11.8s-9-7.3-13.5-10.6   c-2.3-1.7-4.4-3.3-6.7-4.9s-4.5-3.2-6.8-4.9c-8.6-6.2-16.4-13.5-23.1-21.7c-3-3.7-5.6-7.6-8-11.7c-2.2-3.7-4-7.5-5.5-11.5   c-2.5-6.4-4-13.1-4.4-20c-0.3-4.4-0.1-8.7,0.7-13C148.6,335.7,148.9,334.2,149.4,332.7z"/>
	<path class="st1" d="M373.7,277.1c1.7,1.1,3.3,2.4,4.8,3.7c1.5,1.3,3,2.7,4.4,4.2c0.7,0.7,1.4,1.5,2.1,2.2s1.4,1.5,2,2.3   c1.3,1.6,2.6,3.2,3.7,4.9c1.2,1.7,2.3,3.5,3.3,5.3c0.5,0.9,1,1.9,1.4,2.8s0.9,1.9,1.3,2.9s0.8,2,1.1,3l0.9,3.1l0.6,3.2   c0.2,1.1,0.3,2.2,0.4,3.3c0.2,2.2,0.2,4.4,0,6.6l-0.1,1.7l-0.3,1.6c-0.2,1.1-0.4,2.2-0.7,3.3c-0.3,1.1-0.6,2.2-1,3.2l-1.2,3.1   c-0.4,1-1,2-1.4,3l-0.8,1.5c-0.3,0.5-0.6,0.9-0.9,1.4l-1.8,2.8c-0.6,0.9-1.3,1.7-2,2.6c-1.3,1.7-2.7,3.4-4.2,5   c-0.7,0.8-1.5,1.5-2.3,2.3l-2.4,2.2c-1.6,1.4-3.3,2.7-4.9,4.1c-0.3,0.3-0.7,0.5-1.1,0.6l-0.5,0.2c-3.8,1.5-7.6,2.8-11.4,4.4   s-7.4,3.2-11,5s-7.1,3.6-10.5,5.6s-6.7,4.1-9.9,6.5c-3.1,2.3-6.1,4.8-9.1,7.5c-1.5,1.4-3,2.8-4.9,4.3c-1,0.8-2,1.6-3.1,2.3   c-1.4,0.9-2.8,1.6-4.3,2.1c-0.9,0.3-1.7,0.5-2.6,0.6l-0.7,0.1h-0.2H306h-1.1c-0.6,0-1.2-0.1-1.7-0.1s-1-0.2-1.5-0.3s-1-0.3-1.5-0.5   s-0.9-0.4-1.4-0.6c-1.5-0.8-2.8-1.8-3.9-3c-1-1-1.7-1.8-2.4-2.6c-1.2-1.4-2.4-2.8-3.8-4.1c-1.3-1.2-2.6-2.3-4.1-3.4   c-1.5-1-3.1-2-4.7-2.8c-1.7-0.9-3.4-1.7-5.2-2.4c-3.7-1.4-7.4-2.7-11.2-3.6l-6-1.4l-3-0.7l-1.5-0.4l-1.6-0.4   c-4.2-1.1-8.3-2.4-12.4-3.9l-3-1.2c-1-0.4-2-0.9-3-1.3c-2-0.8-3.9-2-5.9-3c-3.9-2.3-7.4-5.1-10.3-8.5c-2.9-3.3-5.3-7.2-6.8-11.3   c-0.8-2-1.5-4-2-6.1c-0.6-2-1-4.1-1.4-6.1c0.9,1.9,1.7,3.8,2.7,5.7c0.5,0.9,0.9,1.9,1.5,2.7s1,1.8,1.5,2.7c2,3.4,4.6,6.5,7.7,9.1   c3,2.5,6.4,4.5,10,6c1.9,0.7,3.6,1.5,5.6,2c1,0.3,1.9,0.6,2.9,0.9l2.9,0.8c3.9,1,7.9,1.7,11.9,2.4l1.5,0.3l1.5,0.2l3.1,0.5l3.1,0.5   c1.1,0.2,2.1,0.3,3.2,0.5c4.4,0.7,8.7,1.8,12.9,3.2c4.4,1.4,8.6,3.4,12.6,5.8c2,1.3,4,2.7,5.8,4.3c1.7,1.5,3.4,3.2,4.9,4.9   c0.7,0.8,1.4,1.5,1.9,2c0.3,0.3,0.6,0.6,1,0.8l0,0l0,0l0,0c-0.1,0-0.1,0-0.2,0h0.3h0.4h0.2h-0.3l0,0h0.1c0.1,0,0.3-0.1,0.4-0.1   c0.4-0.2,0.9-0.4,1.2-0.7c0.5-0.4,1.2-0.9,1.9-1.4c1.4-1.2,2.9-2.6,4.5-4c3.2-3,6.6-5.8,10.2-8.4s7.3-5,11.1-7.2   c3.8-2.2,7.7-4.1,11.7-5.9c2-0.9,4-1.7,6-2.6s4-1.6,6-2.3c4-1.5,8.1-2.9,12.2-4.1l-1.6,0.8l4.5-3.3c1.4-1.2,2.9-2.4,4.2-3.6   c1.4-1.2,2.6-2.5,3.9-3.9l1.8-2l1.6-2.1c0.3-0.4,0.6-0.7,0.8-1.1l0.7-1.1c0.5-0.8,1-1.5,1.4-2.3l1.2-2.4c0.4-0.8,0.6-1.6,1-2.5   c0.3-0.8,0.6-1.7,0.8-2.5l0.6-1.4l0.3-1.3c0.4-1.7,0.6-3.5,0.6-5.3c0-0.9,0-1.8,0-2.7l-0.2-2.7l-0.4-2.7l-0.6-2.7   c-0.2-0.9-0.5-1.8-0.7-2.7s-0.6-1.8-0.9-2.7c-0.6-1.8-1.4-3.6-2.2-5.3s-1.7-3.5-2.7-5.2c-0.5-0.9-1-1.7-1.5-2.5s-1-1.7-1.6-2.5   c-1.1-1.6-2.3-3.2-3.5-4.8C376.3,280.1,375.1,278.6,373.7,277.1z"/>
	<path class="st1" d="M250.1,344.2c0,0-0.9,0.1-2.6,0.1c-6.5,0-12.9-0.9-19.1-2.7c-2.4-0.7-4.7-1.5-6.9-2.5c-2.5-1.1-5-2.4-7.3-3.8   c-6.9-4.3-12.4-10.5-15.9-17.9c-0.4-0.8-0.7-1.6-1-2.5l-0.5-1.2l-0.4-1.3l-0.8-2.6l-0.6-2.7l-0.3-1.3c-0.1-0.5-0.1-0.9-0.2-1.4   l-0.4-2.7c-0.1-0.9-0.1-1.8-0.2-2.8s-0.1-1.9-0.1-2.8v-2.8v-1.4v-0.3v-0.2v-0.3l0.1-0.7l0.1-1.3c0-0.5,0.1-1,0.2-1.5l0.3-1.5   l0.3-1.4l0.3-1.4l0.4-1.4c0.3-0.9,0.6-1.9,0.9-2.8c1.2-3.6,2.7-7.1,4.3-10.5c0.8-1.7,1.5-3.3,2.2-4.9c0.6-1.4,1.2-2.8,1.6-4.3   c0-0.2,0.1-0.4,0.1-0.7l0.1-1.4l0.1-1.4v-1.3c0.1-1.6,0.1-3.2-0.1-4.8c-0.1-0.8-0.2-1.5-0.3-2.3l-0.1-0.4c0-0.1-0.1-0.4-0.1-0.6   c-0.1-0.6-0.1-1.2,0-1.8c0.2-1,0.5-2,1.1-2.8c0.2-0.3,0.3-0.6,0.5-0.8l0.4-0.6l0.8-1.2l0.8-1.1l0.4-0.6l0.3-0.3l0.1-0.1l0.2-0.3   l0.2-0.3c0.1-0.1,0.3-0.3,0.4-0.4c0.3-0.3,0.6-0.6,0.9-0.9c0.6-0.5,1.2-0.9,1.9-1.3c1.3-0.7,2.7-1.1,4.2-1.3   c2.2-0.1,4.5,0.1,6.6,0.7c3.7,0.9,6.9,1.8,10,2.4c3,0.6,6.1,0.8,9.1,0.7c2.9-0.2,5.8-0.7,8.6-1.5c1.5-0.5,3-0.9,4.4-1.4l4.2-1.4   c2.8-0.9,5.5-1.8,8.2-2.6c4.9-1.6,10-2.6,15.2-3c4-0.2,8,0.3,11.9,1.5l2.2,0.8c0.7,0.3,1.3,0.6,1.9,0.8l1.6,0.7   c0.5,0.2,0.9,0.5,1.3,0.7l2.3,1.3l-2.5-0.8c-0.4-0.1-0.9-0.3-1.4-0.4l-1.7-0.4c-0.6-0.1-1.2-0.3-1.9-0.5l-2.2-0.4   c-3.7-0.5-7.4-0.5-11.1,0.2c-4.7,1-9.3,2.5-13.8,4.5l-7.8,3.4c-1.4,0.6-2.8,1.2-4.2,1.8s-2.9,1.1-4.4,1.7   c-3.3,1.3-6.8,2.1-10.3,2.5c-3.7,0.4-7.4,0.3-11-0.2c-3.7-0.4-7.3-1.4-10.5-2c-1.3-0.3-2.7-0.4-4-0.3c-0.3,0-0.6,0.1-0.9,0.3   c-0.1,0.1-0.2,0.1-0.3,0.2c0,0,0,0,0,0.1s0,0-0.1,0l-0.2,0.3l-0.2,0.3l-0.1,0.1l0.1-0.1v0.1l-0.4,0.6l-0.8,1.1l-0.7,1.1l-0.3,0.5   c-0.1,0.2-0.1,0.3-0.2,0.4s0,0.2,0-0.3c0-0.2,0-0.3,0-0.5c0,0,0-0.1,0,0l0.1,0.3c0.2,1,0.4,2.1,0.5,3.1c0.2,2,0.2,4.1,0.1,6.1   l-0.1,1.5l-0.1,1.4l-0.1,1.4c-0.1,0.7-0.2,1.4-0.3,2c-0.5,2.1-1.2,4.1-2.1,6c-0.8,1.8-1.6,3.4-2.3,5.1c-1.5,3.3-3,6.4-4.1,9.6   c-0.3,0.8-0.6,1.6-0.8,2.4l-0.4,1.2l-0.3,1.2l-0.1,1l-0.2,1.1c-0.1,0.4-0.2,0.7-0.2,1.1l-0.2,1.3l-0.1,0.7v0.3c0,0.2,0-0.1,0-0.1   v0.2l-0.1,1.2l-0.1,2.5c0,1.6,0,3.2,0.1,4.8l0.2,2.4c0,0.4,0.1,0.8,0.1,1.2l0.2,1.1l0.4,2.3l0.5,2.2l0.3,1.1l0.4,1.1l0.7,2.1   c0.6,1.3,1.1,2.7,1.8,4c0.4,0.6,0.6,1.3,1,1.9l1.1,1.8c0.4,0.6,0.8,1.1,1.3,1.7c0.4,0.6,0.8,1.1,1.3,1.6c1.7,2,3.7,3.9,5.8,5.5   c3.8,3,7.9,5.4,12.4,7.3c3.5,1.5,7.1,2.8,10.7,3.8c3.1,0.8,5.5,1.4,7.2,1.7S250.1,344.2,250.1,344.2z"/>
	<path class="st1" d="M288.1,241.7c0,0,0.9-0.4,2.7-0.9s4.5-1.3,7.9-1.9c4.2-0.8,8.4-1.3,12.7-1.5c5.6-0.3,11.2,0.1,16.8,1.1   c0.8,0.2,1.5,0.4,2.3,0.5s1.6,0.4,2.4,0.6l2.4,0.7l2.4,0.9c3.3,1.3,6.5,3,9.4,5.2c3.1,2.2,5.9,4.9,8.3,8l0.9,1.2l0.8,1.3   c0.5,0.8,1.1,1.7,1.6,2.5c1,1.8,1.9,3.6,2.6,5.5c0.4,0.9,0.8,1.9,1.1,2.9l0.9,2.9l0.4,1.5l0.3,1.5l0.6,3l0.1,0.4v0.2v0.4l0.1,0.7   l0.2,1.4l0.2,1.4c0.1,0.5,0.1,1.1,0.1,1.6c0,1.1,0.1,2.3,0.1,3.4l-0.2,3.3l-0.5,3.3c-0.3,1.1-0.5,2.2-0.8,3.3s-0.7,2.2-1.2,3.2   c-0.5,1.1-1,2.1-1.5,3.1l-0.9,1.5l-0.9,1.4c-0.6,1-1.3,1.8-2,2.7c-1.4,1.7-2.7,3.2-3.9,4.6l-0.8,1c-0.3,0.3-0.5,0.6-0.7,1   c-0.2,0.3-0.4,0.6-0.6,0.9l-0.1,0.2l-0.1,0.1c0,0,0.1-0.2,0-0.1v0.1l-0.3,0.7l-0.3,0.7c-0.1,0.2-0.2,0.4-0.3,0.6l-0.3,1   c-0.3,0.8-0.6,1.6-0.8,2.5c-0.5,1.7-0.9,3.5-1.3,5.5c-0.4,2.2-1,4.3-1.8,6.4c-1,2.6-2.7,4.8-4.8,6.5l-0.8,0.6l-0.4,0.3   c-0.2,0.1,0.2-0.1-0.4,0.2h-0.1l-0.2,0.1l-0.6,0.3l-0.3,0.2l-0.2,0.1l-0.3,0.1c-0.7,0.3-1.5,0.5-2.2,0.7c-0.6,0.1-1.3,0.3-1.9,0.4   c-2.2,0.2-4.4,0.2-6.6,0c-2-0.1-3.8-0.4-5.6-0.5c-3.5-0.3-7.1-0.4-10.6-0.4c-1.7,0-3.4,0.1-5.1,0.2s-3.4,0.3-5,0.5l-5,0.6   c-1.6,0.2-3.3,0.4-5,0.6l-2.5,0.2l-2.4,0.1c-1.6,0.1-3.2,0.1-4.7,0.1s-3.1-0.1-4.5-0.1s-3-0.3-4.4-0.4c-2.7-0.4-5.3-1.1-7.9-2   l-1.8-0.7l-1.6-0.8c-1.1-0.5-2.1-1.1-3-1.8c-1.6-1.2-3.1-2.5-4.4-4.1c-0.3-0.4-0.6-0.6-0.9-1l-0.7-1c-0.4-0.6-0.8-1.2-1.2-1.9   l-0.9-1.7c-0.3-0.5-0.5-0.9-0.7-1.4l-1.1-2.7l1.5,2.4c0.3,0.4,0.6,0.9,0.9,1.3l1.1,1.5c0.4,0.6,0.9,1.1,1.4,1.6l0.8,0.9   c0.3,0.3,0.6,0.6,0.9,0.8c3,2.6,6.7,4.4,10.6,5.3c5.1,1.1,10.3,1.2,15.5,0.6c5.8-0.5,11.8-1.9,18.8-3.3c7.3-1.4,14.8-1.9,22.2-1.6   l5.6,0.3c1.6,0.1,3.3,0.1,4.9-0.1l0.9-0.2c0.2-0.1,0.4-0.1,0.5-0.2h0.1l0.1-0.1l0.3-0.2l0.6-0.4l0.2-0.1h0.1   c-0.6,0.3-0.1,0.1-0.2,0.1l0.2-0.1l0.4-0.3c0.9-0.7,1.6-1.7,2-2.9c1-2.7,1.4-6.9,2.6-11.1c0.3-1.1,0.6-2.1,1-3.2l0.7-1.7   c0.1-0.3,0.2-0.5,0.3-0.8l0.3-0.7l0.3-0.7l0.1-0.3l0.1-0.2l0.2-0.4c0.3-0.6,0.6-1.1,1-1.6s0.7-1,1-1.4l1-1.3c1.4-1.6,2.6-3,3.8-4.5   c0.5-0.7,1.1-1.4,1.6-2.1l0.7-1.1l0.6-1.1c0.4-0.7,0.8-1.5,1.1-2.2c0.3-0.8,0.6-1.5,0.9-2.3l0.8-2.5l0.4-2.5l0.2-2.6   c0-0.9,0-1.7,0-2.5c0-0.4,0-0.8,0-1.3l-0.1-1.5l-0.1-1.4l-0.1-0.7V278c0,0,0-0.2,0,0.1v-0.2l-0.1-0.3l-0.5-2.6l-0.2-1.3l-0.3-1.3   l-0.6-2.5c-0.2-0.8-0.5-1.6-0.8-2.4c-0.6-1.6-1.2-3.1-2-4.6c-0.4-0.7-0.8-1.4-1.2-2.1L350,260l-0.7-1c-1.8-2.6-3.9-5-6.4-7   c-4.7-3.8-10.1-6.6-15.9-8.3c-2.6-0.8-5.3-1.4-8.1-1.8c-1.3-0.3-2.6-0.4-3.8-0.6s-2.5-0.3-3.7-0.4c-4.1-0.3-8.3-0.4-12.4-0.2   c-3.5,0.2-6.2,0.4-8,0.6S288.1,241.7,288.1,241.7z"/>
	<path class="st1" d="M310.1,302.7c-0.4,1.3-0.8,2.5-1.4,3.7c-0.5,1.2-1.1,2.4-1.8,3.5c-0.6,1.2-1.4,2.3-2.1,3.4   c-0.4,0.5-0.8,1.1-1.2,1.6l-1.3,1.5l-1.4,1.5l-1.5,1.4l-1.5,1.3l-1.6,1.3c-1.1,0.8-2.3,1.5-3.5,2.2c-0.6,0.4-1.2,0.6-1.9,0.9   c-0.6,0.3-1.3,0.6-1.9,0.8c-1.3,0.5-2.6,0.9-4,1.3l-2,0.5c-0.7,0.1-1.4,0.2-2.1,0.3c-0.7,0.1-1.4,0.2-2.1,0.2s-1.4,0.1-2.1,0.1   c-1.4,0-2.8,0-4.1-0.2c-0.7-0.1-1.4-0.1-2.1-0.2l-2-0.3c-1.4-0.2-2.7-0.6-4-0.9s-2.6-0.8-3.9-1.2l-3.9-1.5c-0.1,0-0.2-0.1-0.3-0.1   l-0.1-0.1l-3.5-2.1l-3.4-2.3l-1.7-1.3c-0.6-0.4-1.1-0.8-1.6-1.3l-1.6-1.4l-1.6-1.6c-1-1.1-2-2.3-2.8-3.6c-0.8-1.3-1.5-2.7-2-4.2   c-0.3-0.7-0.5-1.4-0.7-2.1l-0.5-2.1l-0.4-2l-0.4-1.9c-0.3-1.3-0.5-2.5-0.8-3.7c-0.1-0.6-0.3-1.2-0.5-1.8l-0.3-0.9l-0.1-0.2v-0.1   v0.1l0,0l0,0v-0.1l-0.2-0.5l-0.6-1.9l-0.6-1.6c-0.5-1.1-1-2.1-1.6-3.1s-1.3-2-2.1-3c-0.9-1.1-1.7-2.3-2.5-3.5l-0.3-0.6   c-0.1-0.2-0.2-0.4-0.3-0.7c-0.2-0.5-0.4-0.9-0.5-1.4s-0.2-1-0.2-1.5s0-1,0.1-1.5c0.3-1.7,0.8-3.2,1.6-4.7c0.3-0.7,0.9-1.2,1.6-1.4   l0,0c1-0.4,2.2-0.8,3.3-1.3s2.2-0.9,3.3-1.4s2.1-1,3.2-1.5s2.1-1.1,3.1-1.7s2-1.2,3-1.9s1.9-1.3,2.8-2l1.4-1.2   c0.5-0.4,0.9-0.8,1.5-1.2l1.8-1.2l1.8-0.9c1.2-0.6,2.4-1.1,3.6-1.5c1.2-0.4,2.4-0.8,3.7-1.1c1.3-0.3,2.5-0.5,3.8-0.6   c0.6-0.1,1.3-0.2,1.9-0.2s1.3-0.1,1.9-0.1h1.9c0.6,0,1.3,0.1,1.9,0.1c0.6,0.1,1.3,0.1,1.9,0.3c0.6,0.1,1.2,0.2,1.9,0.4   c1.2,0.3,2.4,0.7,3.5,1.3c0.5,0.3,1.1,0.6,1.6,0.9l1.5,1.1l-1.6-0.9c-0.6-0.2-1.1-0.4-1.7-0.6c-1.2-0.3-2.3-0.6-3.5-0.7   c-0.6-0.1-1.2-0.1-1.8-0.1c-0.6,0-1.2,0-1.8,0c-0.6,0-1.2,0-1.8,0.1l-1.8,0.2c-0.6,0.1-1.2,0.2-1.8,0.3c-0.6,0.1-1.2,0.2-1.7,0.4   c-1.1,0.3-2.3,0.6-3.4,1s-2.2,0.8-3.2,1.3s-2,1-3,1.6l-1.4,0.9l-1.2,1c-0.4,0.4-0.9,0.8-1.3,1.3l-1.3,1.3c-1,0.9-1.9,1.8-3,2.5   s-2.1,1.5-3.1,2.3s-2.1,1.4-3.2,2s-2.2,1.3-3.3,1.9s-2.3,1.1-3.4,1.7s-2.3,1-3.5,1.5l1.6-1.5c-0.4,0.9-0.7,1.8-0.9,2.8   c-0.1,0.7,0.1,1.3,0.5,1.8c0.5,0.8,1.3,1.8,2.2,2.8c0.9,1.1,1.7,2.3,2.5,3.5s1.5,2.5,2.1,3.8l0.9,2.1l0.7,1.9l0.2,0.5v0.1l0.1,0.2   l0.1,0.3l0.3,1c0.2,0.7,0.4,1.3,0.6,2c0.4,1.3,0.6,2.7,0.9,4l0.8,3.8l0.4,1.8c0.2,0.5,0.3,1.1,0.5,1.6c0.8,2.1,1.9,4,3.4,5.6   l1.2,1.3l1.4,1.2c0.9,0.8,1.9,1.5,2.9,2.3l3.1,2.2l3.2,2.1l-0.4-0.2l3.4,1.5c1.2,0.4,2.3,0.9,3.5,1.2l1.8,0.5   c0.6,0.2,1.2,0.4,1.8,0.5l1.8,0.4c0.6,0.1,1.2,0.2,1.8,0.3c1.2,0.2,2.4,0.3,3.6,0.4c0.6,0,1.2,0,1.8,0c0.6,0,1.2,0,1.8,0   c0.6,0,1.2-0.1,1.8-0.1l1.8-0.2c1.2-0.2,2.4-0.5,3.6-0.8c0.6-0.2,1.2-0.3,1.8-0.6c0.6-0.2,1.2-0.4,1.7-0.7s1.1-0.5,1.7-0.8l1.6-0.9   l1.6-1l1.5-1.1l1.5-1.1l1.4-1.2c0.9-0.9,1.8-1.8,2.7-2.7s1.7-1.9,2.5-2.9C307.6,307.1,309,305,310.1,302.7z"/>
	<path class="st1" d="M279.2,261.2c1-0.8,2.1-1.5,3.2-2.1c1.3-0.7,2.6-1.4,4-1.9c1.8-0.7,3.8-1.2,5.7-1.5c2.4-0.4,4.8-0.4,7.2-0.2   c0.7,0.1,1.3,0.2,2,0.3s1.3,0.3,2,0.5c0.6,0.2,1.4,0.4,1.9,0.6l1.8,0.6c2.3,0.8,4.7,1.5,7.2,2.1s5,1,7.5,1.3   c0.7,0.1,1.3,0.1,2.1,0.3c0.9,0.1,1.7,0.3,2.6,0.5h0.1l0.2,0.1l0.5,0.2c0.2,0.1,0.4,0.2,0.5,0.3c0.2,0.1,0.4,0.3,0.5,0.4   c0.5,0.5,0.8,1.1,1,1.8c0,0.2,0.1,0.4,0.1,0.5s0,0.3,0,0.4c0,0.3-0.1,0.5-0.1,0.8c0,0.2-0.1,0.3-0.2,0.5c-0.1,0.1-0.1,0.3-0.2,0.4   c-0.1,0.2-0.2,0.4-0.4,0.6l-0.3,0.4l-0.3,0.3c-0.5,0.6-1.1,1.1-1.7,1.6c-1,0.9-2,1.7-2.9,2.5s-1.7,1.7-2.5,2.5s-1.4,1.7-2.1,2.6   c-0.6,0.9-1.2,1.9-1.8,3c-1.2,2-2.6,3.9-4.2,5.6c-1.3,1.5-2.9,2.8-4.7,3.9c-1.4,0.8-3,1.3-4.6,1.3c-1,0-2-0.3-2.9-0.7l-0.9-0.5   l1,0.1c0.4,0,0.8,0,1.1,0c0.2,0,0.5,0,0.7-0.1c0.3,0,0.5-0.1,0.8-0.2c1.2-0.4,2.4-1.1,3.3-2c1.2-1.2,2.3-2.6,3.1-4.1   c1.1-1.8,2-3.7,2.8-5.6c0.5-1.1,0.9-2.2,1.6-3.4c0.6-1.2,1.4-2.4,2.2-3.5c1.7-2.2,3.6-4.3,5.7-6.2c0.5-0.4,1-0.9,1.2-1.2l0.1-0.1   l0,0L323,264l-0.1,0.2c0,0.1-0.1,0.2-0.1,0.3c-0.1,0.2-0.1,0.4-0.1,0.6c0,0.1,0,0.2,0,0.3c0,0.1,0,0.3,0,0.4c0.1,0.5,0.4,1,0.7,1.4   c0.1,0.1,0.2,0.2,0.3,0.3c0.1,0.1,0.2,0.1,0.3,0.2l0.2,0.1h0.1l0,0h-0.1h-0.1l0,0h0.1H324l-0.4-0.1c-0.3,0-0.5-0.1-0.9-0.1l-2-0.2   c-2.9-0.3-5.7-0.8-8.5-1.6c-2.7-0.8-5.2-1.8-7.8-2.9l-1.7-0.8l-1.6-0.7c-0.5-0.2-1-0.4-1.5-0.6c-0.5-0.1-1-0.4-1.5-0.5   c-2-0.5-4-0.8-6-0.9c-1.8-0.1-3.6,0-5.3,0.2c-1.6,0.2-3,0.4-4.2,0.6s-2.1,0.5-2.7,0.6L279.2,261.2z"/>
	<path class="st1" d="M277.1,296.7c-0.9-0.9-1.7-1.9-2.4-3c-0.8-1.1-1.3-2.4-1.5-3.8c-0.1-0.9,0.2-1.8,0.9-2.4   c0.6-0.6,1.4-1,2.2-1.1c1.4-0.2,2.8-0.2,4.2,0c1.3,0.2,2.6,0.4,3.9,0.6c0.7,0.1,1.3,0.3,2,0.5s1.3,0.4,1.9,0.6   c1.4,0.5,2.7,1.2,3.9,2.1c0.7,0.6,1.3,1.2,1.7,2c0.3,0.4,0.5,0.9,0.6,1.4c0.1,0.3,0.1,0.5,0.2,0.8s0,0.5,0,0.8c0,1.8-0.6,3.6-1.7,5   c-0.8,1.2-1.8,2.2-2.8,3.2c-2,1.9-4.1,3.6-6.5,5.1c-2.5,1.6-5.4,2.6-8.4,2.9l-1.2,0.1c-0.4,0-0.9-0.1-1.3-0.1   c-0.9-0.1-1.7-0.3-2.5-0.6c-0.4-0.1-0.8-0.3-1.2-0.5c-0.4-0.2-0.8-0.4-1.2-0.6l-1-0.8c-0.4-0.3-0.7-0.6-1-0.9l-0.8-0.9   c-0.1-0.2-0.2-0.3-0.4-0.5l-0.3-0.4l-0.3-0.4l-0.3-0.5c-0.2-0.3-0.4-0.6-0.6-0.9c-0.7-1.1-1.4-2.3-2-3.6c-1.2-2.4-2.2-4.9-3-7.5   c-0.8-2.7-1.3-5.4-1.5-8.2c-0.1-1.5,0.1-3,0.4-4.5c0.3-1.7,1.1-3.3,2.2-4.7c1.2-1.4,2.8-2.4,4.6-2.9c0.4-0.1,0.8-0.2,1.2-0.3   c0.4-0.1,0.8-0.1,1.2-0.1h2c1,0,2.1-0.1,3.1-0.4c1-0.2,1.9-0.6,2.8-1.1c1-0.6,1.9-1.3,2.7-2c1.1-1,2.3-1.8,3.7-2.5   c0.8-0.3,1.7-0.5,2.6-0.5c0.8,0,1.6,0.2,2.4,0.4c1.3,0.5,2.5,1.2,3.7,2l0.2,0.1c0.1,0.1,0.3,0.2,0.3,0.4c0.3,0.6,0.5,1.1,0.7,1.6   s0.4,1.1,0.6,1.7c0.4,1.1,0.6,2.3,0.7,3.5c0.1,0.6,0.1,1.2,0,1.8c0,0.3-0.1,0.6-0.2,0.9s-0.3,0.6-0.5,0.9s-0.4,0.5-0.7,0.7   c-0.3,0.2-0.5,0.3-0.8,0.4s-0.6,0.1-0.9,0.1s-0.6,0-0.9,0c0.3,0,0.6-0.1,0.8-0.2c0.3-0.1,0.5-0.2,0.8-0.3c0.2-0.1,0.4-0.3,0.6-0.5   s0.3-0.4,0.4-0.6s0.1-0.5,0.2-0.7c0-0.2,0-0.5,0-0.7c0-0.5-0.1-1-0.3-1.5c-0.3-1-0.7-2-1.2-3c-0.2-0.5-0.5-1-0.8-1.4   c-0.3-0.5-0.6-0.9-0.8-1.4l0.5,0.5c-1-0.5-2.1-0.9-3.2-1.1c-0.5-0.1-0.9-0.1-1.4-0.1c-0.4,0.1-0.7,0.2-1.1,0.4   c-1.4,0.8-2.9,3.2-5.4,4.9c-1.2,0.9-2.6,1.6-4,2.1s-2.9,0.8-4.4,0.9l-0.9,0.1h-0.3h-0.2h-0.4c-0.2,0-0.4,0.1-0.7,0.1   c-0.2,0-0.4,0.1-0.6,0.2c-0.6,0.2-1.2,0.6-1.6,1.1c-0.8,1-1.1,3-0.9,5.1c0.2,2.2,0.7,4.5,1.4,6.6c0.7,2.2,1.6,4.4,2.7,6.5   c0.5,1,1.1,2,1.7,3c0.1,0.3,0.3,0.5,0.4,0.7l0.2,0.3l0.3,0.4l0.3,0.4c0,0,0.1,0.1,0.2,0.2l0.4,0.5c1.1,1.2,2.7,1.8,4.3,1.7   c2-0.2,4-0.8,5.8-1.8c2-1.1,3.9-2.4,5.6-3.8c0.9-0.7,1.7-1.5,2.4-2.3c0.5-0.5,0.8-1.2,1-1.9c0-0.1,0-0.1,0-0.2s0-0.1,0-0.2   s0-0.2-0.1-0.4c0-0.1-0.1-0.3-0.2-0.4c-0.1-0.2-0.2-0.3-0.4-0.5c-0.7-0.7-1.6-1.3-2.5-1.8c-0.5-0.3-1-0.5-1.6-0.7   c-0.5-0.2-1.1-0.5-1.6-0.7c-1-0.4-2.4-0.8-3.5-1.1c-1.1-0.3-2.2-0.5-3.3-0.5c-0.4,0-0.8,0.1-1.2,0.3c-0.3,0.2-0.5,0.6-0.6,1   c0,1.2,0.2,2.3,0.6,3.4C275.9,294.5,276.5,295.6,277.1,296.7z"/>
</g>
</svg>